# xmcd
#
# Track frame offsets:
#	150
#	13317
#	31019
#	46756
#	65793
#	79495
#	93164
#	111137
#	123683
#	142301
#	155197
#	169445
#	184249
#	198999
#
# Disc length: 2854 seconds
#
# Revision: 6
# Processed by: cddbd v1.5.2PL0 Copyright (c) Steve Scherf et al.
# Submitted via: audiograbber 1.83.01
#
DISCID=d10b240e
DTITLE=Willie Nelson - Band Of Brothers
DYEAR=2014
DGENRE=Country
TTITLE0=Bring It On
TTITLE1=Guitar In The Corner
TTITLE2=The Wall
TTITLE3=Whenever You Come Around
TTITLE4=Wives And Girlfriends
TTITLE5=I Thought I Left You
TTITLE6=Send Me A Picture
TTITLE7=Used To Her
TTITLE8=The Git Go (with Jamey Johnson)
TTITLE9=Band Of Brothers
TTITLE10=Hard To Be An Outlaw
TTITLE11=Crazy Like Me
TTITLE12=The Songwriters
TTITLE13=I've Got A Lot Of Traveling To Do
EXTD=YEAR: 2014
EXTT0=
EXTT1=
EXTT2=
EXTT3=
EXTT4=
EXTT5=
EXTT6=
EXTT7=
EXTT8=
EXTT9=
EXTT10=
EXTT11=
EXTT12=
EXTT13=
PLAYORDER=
